<svg id="Layer_1" enable-background="new 0 0 512.049 512.049" height="512" viewBox="0 0 512.049 512.049" width="512" xmlns="http://www.w3.org/2000/svg"><g><g clip-rule="evenodd" fill="#ffc144" fill-rule="evenodd"><path d="m87.396 130.056-20.18-31.283-21.203 32.026-35.988 9.526 23.907 30.061-2.062 37.17 35.978-13.447 34.713 13.447-1.671-38.372 23.516-28.859z"/><path d="m140.699 72.462 35.938 45.19-3.1 55.875 54.084-20.214 52.183 20.214-2.512-57.683 35.35-43.382-55.636-15.437-30.336-47.025-31.873 48.143z"/><path d="m326.753 210.387-80.461 21.297 53.45 67.212-4.609 83.105 80.44-30.065 77.613 30.065-3.736-85.794 52.576-64.523-82.748-22.959-45.119-69.942z"/></g><g><path d="m50.027 292c-5.523 0-10 4.477-10 10v30h-20.001v-30c-.528-13.268-19.477-13.258-20 0v80c.528 13.268 19.477 13.258 20 0v-30h20.001v30c.528 13.268 19.477 13.258 20 0v-80c0-5.522-4.477-10-10-10z"/><path d="m75.028 302v80c.528 13.268 19.477 13.258 20 0v-80c-.528-13.268-19.477-13.257-20 0z"/><path d="m170.03 362v-10c0-5.523-4.477-10-10-10h-9.999c-13.268.528-13.258 19.475-.001 20-.552 13.269-19.454 13.258-20 0v-40c.551-13.268 19.454-13.261 20.001 0 .525 13.263 19.475 13.263 20 0-1.648-39.801-58.36-39.785-60 0v40c1.651 39.809 58.361 39.779 59.999 0z"/><path d="m234.032 392c5.523 0 10-4.477 10-10v-80c-.528-13.268-19.477-13.258-20 0v30h-20.001v-30c-.528-13.268-19.477-13.258-20 0v80c.528 13.268 19.477 13.258 20 0v-30h20.001v30c0 5.523 4.477 10 10 10z"/><path d="m30.025 412.002c-16.542 0-30 13.458-30 30v40c-.283 21.758 23.524 36.691 42.928 27.069l.002.001c3.905 3.906 10.237 3.906 14.142 0 3.905-3.905 3.906-10.236 0-14.142l-.002-.002c1.878-3.917 2.931-8.301 2.931-12.927v-40c-.001-16.541-13.459-29.999-30.001-29.999zm-10 70v-40c.551-13.269 19.455-13.26 20 0v40c-.55 13.27-19.454 13.259-20 0z"/><path d="m125.027 412.002c-5.523 0-10 4.477-10 10v60c-.551 13.27-19.454 13.259-20 0v-60c-.528-13.268-19.477-13.258-20 0v60c1.653 39.809 58.362 39.778 60 0v-60c0-5.523-4.477-10-10-10z"/><path d="m180.028 412.002c-16.542 0-30 13.458-30 30v60c.528 13.268 19.477 13.258 20 0v-20.001h20v20.001c.528 13.268 19.477 13.258 20 0v-60c0-16.542-13.458-30-30-30zm-10 49.999v-19.999c.551-13.27 19.454-13.259 20 0v19.999z"/><path d="m270.03 492.002h-25v-70c-.528-13.268-19.477-13.258-20 0v80c0 5.523 4.477 10 10 10h35c13.268-.528 13.258-19.477 0-20z"/><path d="m305.031 412.002c-5.523 0-10 4.477-10 10v80c.528 13.268 19.477 13.258 20 0v-80c0-5.523-4.478-10-10-10z"/><path d="m375.032 412.002h-35c-13.268.528-13.258 19.477 0 20h7.5v70c.528 13.268 19.477 13.258 20 0v-70h7.5c13.268-.528 13.258-19.477 0-20z"/><path d="m450.033 412.002c-5.523 0-10 4.477-10 10v29.999c-.551 13.27-19.454 13.259-20 0v-29.999c-.528-13.268-19.477-13.258-20 0v29.999c0 13.037 8.36 24.159 20 28.286v21.715c.528 13.268 19.477 13.258 20 0v-21.715c11.64-4.127 20-15.249 20-28.286v-29.999c0-5.523-4.477-10-10-10z"/><path d="m511.555 228.65c-1.024-3.217-3.602-5.7-6.855-6.603l-79.082-21.941-43.056-66.745c-1.83-2.837-4.968-4.559-8.344-4.579h-.06c-3.354 0-6.485 1.681-8.338 4.479l-22.562 34.079c-3.049 4.605-1.787 10.81 2.818 13.859 4.604 3.047 10.809 1.787 13.859-2.818l14.115-21.321 36.824 57.084c1.329 2.06 3.368 3.56 5.73 4.215l68.004 18.868-42.912 52.661c-1.548 1.9-2.345 4.303-2.238 6.752l3.07 70.506-63.344-24.538c-2.286-.886-4.818-.9-7.113-.042l-66.107 24.708 3.763-67.827c.136-2.447-.632-4.859-2.158-6.778l-43.927-55.236 22.163-5.867c5.339-1.413 8.522-6.887 7.108-12.226-1.413-5.339-6.887-8.521-12.226-7.108l-36.955 9.782c-3.263.864-5.871 3.316-6.933 6.521s-.436 6.729 1.666 9.371l51.082 64.233-4.399 79.305c-.187 3.371 1.34 6.608 4.059 8.609 2.726 2.007 6.283 2.489 9.427 1.312l76.875-28.732 74.064 28.69c3.148 1.221 6.7.769 9.442-1.2 2.743-1.968 4.308-5.187 4.161-8.56l-3.57-81.992 50.173-61.573c2.132-2.614 2.8-6.131 1.776-9.348z"/><path d="m166.441 120.897-2.889 52.076c-.187 3.371 1.339 6.608 4.059 8.609 2.726 2.007 6.283 2.489 9.427 1.312l50.519-18.881 48.634 18.839c3.148 1.22 6.699.768 9.442-1.2s4.308-5.188 4.161-8.56l-2.346-53.881 32.946-40.432c4.569-5.356 1.744-14.225-5.079-15.953l-51.969-14.418-28.272-43.829c-1.83-2.837-4.968-4.559-8.344-4.579h-.06c-3.354 0-6.486 1.681-8.338 4.479l-29.772 44.971-50.419 13.345c-3.264.864-5.871 3.316-6.934 6.521-1.062 3.204-.436 6.729 1.666 9.371zm30.915-53.087c2.37-.627 4.427-2.103 5.78-4.146l23.426-35.384 22.041 34.167c1.329 2.06 3.368 3.56 5.73 4.215l40.891 11.345-25.684 31.52c-1.548 1.9-2.345 4.303-2.238 6.752l1.846 42.396-37.914-14.687c-2.286-.886-4.817-.9-7.113-.042l-39.75 14.857 2.252-40.597c.136-2.447-.632-4.859-2.158-6.778l-26.415-33.214z"/><path d="m108.391 215.681c2.743-1.968 4.308-5.188 4.161-8.56l-1.505-34.57 21.112-25.909c4.569-5.356 1.744-14.225-5.079-15.953l-33.344-9.251-18.117-28.086c-1.83-2.837-4.968-4.559-8.344-4.579-3.336-.004-6.534 1.665-8.398 4.479l-19.102 28.854-32.309 8.551c-3.264.864-5.871 3.316-6.934 6.521-1.062 3.204-.436 6.729 1.666 9.371l21.538 27.083-1.851 33.37c-.187 3.371 1.339 6.608 4.059 8.609 2.726 2.007 6.283 2.49 9.427 1.312l32.414-12.114 31.165 12.071c3.147 1.22 6.698.768 9.441-1.199zm-17.491-46.062 1.005 23.085-20.445-7.92c-2.286-.885-4.816-.9-7.113-.042l-21.645 8.089 1.214-21.892c.136-2.447-.632-4.859-2.158-6.778l-14.382-18.086 21.195-5.61c2.37-.627 4.426-2.103 5.78-4.146l12.756-19.268 11.885 18.424c1.329 2.06 3.368 3.56 5.73 4.215l22.266 6.178-13.85 16.997c-1.548 1.902-2.345 4.305-2.238 6.754z"/><path d="m316.757 210.387c0 5.523 4.481 10 10.004 10 13.265-.527 13.26-19.476 0-20h-.008c-5.523 0-9.996 4.477-9.996 10z"/></g></g></svg>