<?xml version="1.0" standalone="no"?>
<!DOCTYPE svg PUBLIC "-//W3C//DTD SVG 20010904//EN"
 "http://www.w3.org/TR/2001/REC-SVG-20010904/DTD/svg10.dtd">
<svg version="1.0" xmlns="http://www.w3.org/2000/svg"
 width="151.000000pt" height="65.000000pt" viewBox="0 0 151.000000 65.000000"
 preserveAspectRatio="xMidYMid meet">

<g transform="translate(0.000000,65.000000) scale(0.100000,-0.100000)"
fill="#000000" stroke="none">
<path d="M265 569 c-4 -12 -40 -91 -81 -176 -41 -85 -74 -159 -74 -164 0 -6 7
-9 16 -7 9 2 45 67 88 161 40 86 75 159 78 162 3 3 20 -27 38 -67 98 -217 120
-258 134 -258 9 0 16 3 15 8 0 4 -37 86 -83 182 -65 138 -86 176 -103 178 -15
2 -23 -4 -28 -19z"/>
<path d="M691 175 c-2 -5 -2 -19 -2 -31 1 -11 -4 -26 -12 -33 -12 -9 -17 -6
-25 19 -14 40 -21 38 -19 -6 2 -34 4 -35 31 -30 38 8 38 8 33 52 -2 22 -5 35
-6 29z"/>
<path d="M1300 145 c0 -28 -5 -38 -22 -45 -19 -8 -17 -9 17 -8 77 2 85 6 85
50 0 21 -4 37 -9 34 -5 -3 -8 -17 -8 -32 0 -32 -16 -49 -39 -40 -12 5 -15 14
-11 36 4 16 2 32 -3 35 -6 4 -10 -9 -10 -30z"/>
<path d="M171 143 c-1 -17 4 -35 9 -38 11 -7 11 9 0 45 -8 24 -8 24 -9 -7z"/>
<path d="M723 135 c5 -50 17 -56 17 -7 0 23 -4 42 -10 42 -5 0 -8 -16 -7 -35z"/>
<path d="M1041 154 c0 -11 3 -14 6 -6 3 7 2 16 -1 19 -3 4 -6 -2 -5 -13z"/>
<path d="M361 133 c0 -6 -4 -20 -7 -30 -5 -14 -4 -15 5 -7 7 7 11 20 8 30 -3
11 -5 14 -6 7z"/>
<path d="M421 122 c-14 -26 -7 -42 10 -25 6 6 9 19 7 29 -3 17 -5 17 -17 -4z"/>
<path d="M487 120 c-7 -26 -4 -34 11 -29 4 2 5 15 2 29 l-6 25 -7 -25z"/>
<path d="M532 116 c-11 -24 -10 -26 13 -26 28 0 58 27 48 43 -4 6 -9 2 -14
-11 -10 -27 -18 -28 -27 -1 -8 20 -8 20 -20 -5z"/>
<path d="M764 129 c-3 -6 -1 -16 5 -22 8 -8 11 -5 11 11 0 24 -5 28 -16 11z"/>
<path d="M809 126 c10 -11 8 -17 -6 -25 -11 -6 -13 -11 -5 -11 8 0 10 -5 6
-12 -5 -9 -2 -9 9 1 22 17 22 47 1 55 -14 5 -15 4 -5 -8z"/>
<path d="M892 120 c0 -14 2 -19 5 -12 2 6 2 18 0 25 -3 6 -5 1 -5 -13z"/>
<path d="M932 126 c7 -8 15 -12 17 -11 5 6 -10 25 -20 25 -5 0 -4 -6 3 -14z"/>
<path d="M1233 126 c3 -8 1 -16 -6 -19 -6 -2 -4 -6 6 -10 13 -5 17 -1 17 18 0
14 -5 25 -11 25 -6 0 -9 -6 -6 -14z"/>
<path d="M132 110 c0 -14 2 -19 5 -12 2 6 2 18 0 25 -3 6 -5 1 -5 -13z"/>
<path d="M990 123 c0 -5 5 -15 10 -23 8 -12 10 -11 10 8 0 12 -4 22 -10 22 -5
0 -10 -3 -10 -7z"/>
<path d="M1035 121 c-3 -5 -1 -12 5 -16 5 -3 10 1 10 9 0 18 -6 21 -15 7z"/>
<path d="M1166 111 c-3 -5 1 -11 9 -14 9 -4 12 -1 8 9 -6 16 -10 17 -17 5z"/>
</g>
</svg>
